<?xml version="1.0" encoding="utf-8"?>
<svg xmlns="http://www.w3.org/2000/svg" xmlns:cc="http://creativecommons.org/ns#" xmlns:rdf="http://www.w3.org/1999/02/22-rdf-syntax-ns#" xmlns:svg="http://www.w3.org/2000/svg" version="1.2" viewBox="0 0 1500 500">
	<title>Two bars of music, written on a grand staff.</title>
	<polyline class="StaffLines" fill="none" points="47.68400000000008,71.40300000000002 1483.562,71.40300000000002" stroke="#000000" stroke-linejoin="bevel" stroke-width="2.73"/>
	<polyline class="StaffLines" fill="none" points="47.68400000000008,96.20300000000003 1483.562,96.20300000000003" stroke="#000000" stroke-linejoin="bevel" stroke-width="2.73"/>
	<polyline class="StaffLines" fill="none" points="47.68400000000008,121.00299999999999 1483.562,121.00299999999999" stroke="#000000" stroke-linejoin="bevel" stroke-width="2.73"/>
	<polyline class="StaffLines" fill="none" points="47.68400000000008,145.803 1483.562,145.803" stroke="#000000" stroke-linejoin="bevel" stroke-width="2.73"/>
	<polyline class="StaffLines" fill="none" points="47.68400000000008,170.603 1483.562,170.603" stroke="#000000" stroke-linejoin="bevel" stroke-width="2.73"/>
	<polyline class="StaffLines" fill="none" points="47.68400000000008,331.80300000000005 1483.562,331.80300000000005" stroke="#000000" stroke-linejoin="bevel" stroke-width="2.73"/>
	<polyline class="StaffLines" fill="none" points="47.68400000000008,356.603 1483.562,356.603" stroke="#000000" stroke-linejoin="bevel" stroke-width="2.73"/>
	<polyline class="StaffLines" fill="none" points="47.68400000000008,381.40299999999996 1483.562,381.40299999999996" stroke="#000000" stroke-linejoin="bevel" stroke-width="2.73"/>
	<polyline class="StaffLines" fill="none" points="47.68400000000008,406.20300000000003 1483.562,406.20300000000003" stroke="#000000" stroke-linejoin="bevel" stroke-width="2.73"/>
	<polyline class="StaffLines" fill="none" points="47.68400000000008,431.003 1483.562,431.003" stroke="#000000" stroke-linejoin="bevel" stroke-width="2.73"/>
	<polyline class="BarLine" fill="none" points="49.916000000000054,70.03899999999999 49.916000000000054,331.80300000000005" stroke="#000000" stroke-linejoin="bevel" stroke-width="4.46"/>
	<polyline class="BarLine" fill="none" points="880.9220000000001,70.03899999999999 880.9220000000001,331.80300000000005" stroke="#000000" stroke-linejoin="bevel" stroke-width="4.46"/>
	<polyline class="BarLine" fill="none" points="1481.3319999999999,330.439 1481.3319999999999,432.367" stroke="#000000" stroke-linejoin="bevel" stroke-width="4.46"/>
	<polyline class="BarLine" fill="none" points="49.916000000000054,330.439 49.916000000000054,432.367" stroke="#000000" stroke-linejoin="bevel" stroke-width="4.46"/>
	<polyline class="BarLine" fill="none" points="880.9220000000001,330.439 880.9220000000001,432.367" stroke="#000000" stroke-linejoin="bevel" stroke-width="4.46"/>
	<polyline class="BarLine" fill="none" points="1481.3319999999999,70.03899999999999 1481.3319999999999,331.80300000000005" stroke="#000000" stroke-linejoin="bevel" stroke-width="4.46"/>
	<path class="Accidental" d="m 802.56882,102.84938 c -0.1984,-0.1984 -0.496,-0.2976 -0.8928,-0.2976 l -0.1984,0.0992 c 0,0 -0.0992,0 -0.0992,0 l -12.49922,3.47201 V 88.762967 h -2.7776 v 49.104053 c 0,1.0912 0.8928,1.2896 1.7856,1.2896 l 12.49921,-3.47201 v 17.36002 h 2.67841 c 0,-16.46721 0,-32.14083 0,-49.10405 0,-0.3968 -0.1984,-0.8928 -0.496,-1.0912 m -13.68962,27.77603 v -16.26882 l 11.50721,-3.2736 v 16.36802 l -11.50721,3.1744" style="stroke-width:0.992001"/>
	<path class="Accidental" d="m 1023.6488,102.84938 c -0.1984,-0.1984 -0.496,-0.2976 -0.8928,-0.2976 l -0.1984,0.0992 c 0,0 -0.099,0 -0.099,0 l -12.4992,3.47201 V 88.762967 h -2.7776 v 49.104053 c 0,1.0912 0.8928,1.2896 1.7856,1.2896 l 12.4992,-3.47201 v 17.36002 h 2.6784 c 0,-16.46721 0,-32.14083 0,-49.10405 0,-0.3968 -0.1984,-0.8928 -0.496,-1.0912 m -13.6898,27.77603 v -16.26882 l 11.5072,-3.2736 v 16.36802 l -11.5072,3.1744" style="stroke-width:0.992001"/>
	<polyline class="LedgerLine" fill="none" points="732.032,195.40300000000002 780.632,195.40300000000002" stroke="#000000" stroke-linejoin="bevel" stroke-width="3.97"/>
	<polyline class="Stem" fill="none" points="840.2520000000001,117.03500000000003 840.2520000000001,52.803" stroke="#000000" stroke-linejoin="bevel" stroke-width="2.48"/>
	<polyline class="Stem" fill="none" points="1130.3719999999998,166.635 1130.3719999999998,36.281000000000006" stroke="#000000" stroke-linejoin="bevel" stroke-width="2.48"/>
	<polyline class="Stem" fill="none" points="1346.4919999999997,180.22500000000002 1346.4919999999997,121.072" stroke="#000000" stroke-linejoin="bevel" stroke-width="1.74"/>
	<polyline class="Stem" fill="none" points="495.052,154.235 495.052,34.20300000000003" stroke="#000000" stroke-linejoin="bevel" stroke-width="2.48"/>
	<polyline class="Stem" fill="none" points="932.2520000000001,93.42500000000001 932.2520000000001,39.85200000000003" stroke="#000000" stroke-linejoin="bevel" stroke-width="1.74"/>
	<polyline class="Stem" fill="none" points="1061.3319999999999,179.03500000000003 1061.3319999999999,38.32400000000001" stroke="#000000" stroke-linejoin="bevel" stroke-width="2.48"/>
	<polyline class="Stem" fill="none" points="992.292,166.635 992.292,40.365999999999985" stroke="#000000" stroke-linejoin="bevel" stroke-width="2.48"/>
	<polyline class="Stem" fill="none" points="1199.4120000000003,154.235 1199.4120000000003,34.23900000000003" stroke="#000000" stroke-linejoin="bevel" stroke-width="2.48"/>
	<polyline class="Stem" fill="none" points="1406.5320000000002,179.03500000000003 1406.5320000000002,46.60300000000001" stroke="#000000" stroke-linejoin="bevel" stroke-width="2.48"/>
	<polyline class="Stem" fill="none" points="771.2120000000001,191.435 771.2120000000001,52.803" stroke="#000000" stroke-linejoin="bevel" stroke-width="2.48"/>
	<polyline class="Stem" fill="none" points="327.2220000000001,87.969 327.2220000000001,207.80300000000005" stroke="#000000" stroke-linejoin="bevel" stroke-width="2.48"/>
	<polyline class="Stem" fill="none" points="1268.4519999999998,166.635 1268.4519999999998,40.40300000000002" stroke="#000000" stroke-linejoin="bevel" stroke-width="2.48"/>
	<polyline class="Stem" fill="none" points="633.132,166.635 633.132,40.40300000000002" stroke="#000000" stroke-linejoin="bevel" stroke-width="2.48"/>
	<polyline class="Stem" fill="none" points="1376.772,323.569 1376.772,468.20300000000003" stroke="#000000" stroke-linejoin="bevel" stroke-width="2.48"/>
	<polyline class="Stem" fill="none" points="396.26200000000006,323.569 396.26200000000006,468.20300000000003" stroke="#000000" stroke-linejoin="bevel" stroke-width="2.48"/>
	<polyline class="Stem" fill="none" points="962.542,410.36899999999997 962.542,468.20300000000003" stroke="#000000" stroke-linejoin="bevel" stroke-width="2.48"/>
	<polyline class="Stem" fill="none" points="465.302,410.36899999999997 465.302,468.20300000000003" stroke="#000000" stroke-linejoin="bevel" stroke-width="2.48"/>
	<polyline class="Stem" fill="none" points="534.342,323.569 534.342,468.20300000000003" stroke="#000000" stroke-linejoin="bevel" stroke-width="2.48"/>
	<polyline class="Stem" fill="none" points="1100.6219999999998,410.36899999999997 1100.6219999999998,468.20300000000003" stroke="#000000" stroke-linejoin="bevel" stroke-width="2.48"/>
	<polyline class="Stem" fill="none" points="327.2220000000001,410.36899999999997 327.2220000000001,468.20300000000003" stroke="#000000" stroke-linejoin="bevel" stroke-width="2.48"/>
	<polyline class="Stem" fill="none" points="603.382,410.36899999999997 603.382,468.20300000000003" stroke="#000000" stroke-linejoin="bevel" stroke-width="2.48"/>
	<polyline class="Stem" fill="none" points="1307.732,323.569 1307.732,462.11100000000005" stroke="#000000" stroke-linejoin="bevel" stroke-width="2.48"/>
	<polyline class="Stem" fill="none" points="672.4220000000001,323.569 672.4220000000001,468.20300000000003" stroke="#000000" stroke-linejoin="bevel" stroke-width="2.48"/>
	<polyline class="Stem" fill="none" points="1238.7020000000002,410.36899999999997 1238.7020000000002,468.09600000000006" stroke="#000000" stroke-linejoin="bevel" stroke-width="2.48"/>
	<polyline class="Stem" fill="none" points="1169.6620000000003,323.569 1169.6620000000003,468.20300000000003" stroke="#000000" stroke-linejoin="bevel" stroke-width="2.48"/>
	<polyline class="Stem" fill="none" points="810.5020000000001,323.569 810.5020000000001,468.20300000000003" stroke="#000000" stroke-linejoin="bevel" stroke-width="2.48"/>
	<polyline class="Stem" fill="none" points="741.4620000000001,410.36899999999997 741.4620000000001,468.20300000000003" stroke="#000000" stroke-linejoin="bevel" stroke-width="2.48"/>
	<polyline class="Stem" fill="none" points="1031.5819999999999,323.569 1031.5819999999999,468.20300000000003" stroke="#000000" stroke-linejoin="bevel" stroke-width="2.48"/>
	<path class="Note" d="m 809.2616,125.1694 c 0,4.26561 3.0752,9.02721 11.11041,9.02721 10.31681,0 21.12962,-8.43201 21.12962,-17.16161 0,-5.85281 -4.96,-9.12641 -11.11041,-9.12641 -9.62241,0 -21.12962,8.1344 -21.12962,17.26081" style="stroke-width:0.992001"/>
	<path class="Note" d="m 1237.4616,174.7694 c 0,4.26561 3.0752,9.02721 11.1104,9.02721 10.3168,0 21.1296,-8.43201 21.1296,-17.16161 0,-5.85281 -4.96,-9.12641 -11.1104,-9.12641 -9.6224,0 -21.1296,8.13441 -21.1296,17.26081" style="stroke-width:0.992001"/>
	<path class="Note" d="m 1237.4616,112.7694 c 0,4.26561 3.0752,9.02721 11.1104,9.02721 10.3168,0 21.1296,-8.43201 21.1296,-17.16161 0,-5.85281 -4.96,-9.126413 -11.1104,-9.126413 -9.6224,0 -21.1296,8.134413 -21.1296,17.260813" style="stroke-width:0.992001"/>
	<path class="Note" d="m 961.3016,174.7694 c 0,4.26561 3.0752,9.02721 11.11041,9.02721 10.31681,0 21.12962,-8.43201 21.12962,-17.16161 0,-5.85281 -4.96,-9.12641 -11.11041,-9.12641 -9.62241,0 -21.12962,8.13441 -21.12962,17.26081" style="stroke-width:0.992001"/>
	<path class="Note" d="m 740.2216,199.5694 c 0,4.26561 3.0752,9.02721 11.11041,9.02721 10.31681,0 21.12962,-8.43201 21.12962,-17.16161 0,-5.85281 -4.96,-9.12641 -11.11041,-9.12641 -9.62241,0 -21.12962,8.13441 -21.12962,17.26081" style="stroke-width:0.992001"/>
	<path class="Note" d="m 1168.4216,100.3694 c 0,4.26561 3.0752,9.02721 11.1104,9.02721 10.3168,0 21.1296,-8.432 21.1296,-17.161614 0,-5.852806 -4.96,-9.126409 -11.1104,-9.126409 -9.6224,0 -21.1296,8.134408 -21.1296,17.260813" style="stroke-width:0.992001"/>
	<path class="Note" d="m 1168.4216,162.3694 c 0,4.26561 3.0752,9.02721 11.1104,9.02721 10.3168,0 21.1296,-8.43201 21.1296,-17.16161 0,-5.85281 -4.96,-9.12641 -11.1104,-9.12641 -9.6224,0 -21.1296,8.13441 -21.1296,17.26081" style="stroke-width:0.992001"/>
	<path class="Note" d="m 602.1416,112.7694 c 0,4.26561 3.0752,9.02721 11.11041,9.02721 10.31681,0 21.12962,-8.43201 21.12962,-17.16161 0,-5.85281 -4.96,-9.126413 -11.11041,-9.126413 -9.62241,0 -21.12962,8.134413 -21.12962,17.260813" style="stroke-width:0.992001"/>
	<path class="Note" d="m 602.1416,174.7694 c 0,4.26561 3.0752,9.02721 11.11041,9.02721 10.31681,0 21.12962,-8.43201 21.12962,-17.16161 0,-5.85281 -4.96,-9.12641 -11.11041,-9.12641 -9.62241,0 -21.12962,8.13441 -21.12962,17.26081" style="stroke-width:0.992001"/>
	<path class="Note" d="m 1375.5316,187.1694 c 0,4.26561 3.0752,9.02721 11.1104,9.02721 10.3168,0 21.1296,-8.43201 21.1296,-17.16161 0,-5.85281 -4.96,-9.12641 -11.1104,-9.12641 -9.6224,0 -21.1296,8.1344 -21.1296,17.26081" style="stroke-width:0.992001"/>
	<path class="Note" d="m 961.3016,112.7694 c 0,4.26561 3.0752,9.02721 11.11041,9.02721 10.31681,0 21.12962,-8.43201 21.12962,-17.16161 0,-5.85281 -4.96,-9.126413 -11.11041,-9.126413 -9.62241,0 -21.12962,8.134413 -21.12962,17.260813" style="stroke-width:0.992001"/>
	<path class="Note" d="m 1375.5316,125.1694 c 0,4.26561 3.0752,9.02721 11.1104,9.02721 10.3168,0 21.1296,-8.43201 21.1296,-17.16161 0,-5.85281 -4.96,-9.12641 -11.1104,-9.12641 -9.6224,0 -21.1296,8.1344 -21.1296,17.26081" style="stroke-width:0.992001"/>
	<path class="Note" d="m 464.0616,100.3694 c 0,4.26561 3.0752,9.02721 11.11041,9.02721 10.31681,0 21.12962,-8.432 21.12962,-17.161614 0,-5.852806 -4.96,-9.126409 -11.11041,-9.126409 -9.62241,0 -21.12962,8.134408 -21.12962,17.260813" style="stroke-width:0.992001"/>
	<path class="Note" d="m 910.5616,99.119484 c 0,2.985926 2.15264,6.319046 7.77729,6.319046 7.22177,0 14.79074,-5.902405 14.79074,-12.013134 0,-4.096966 -3.472,-6.388489 -7.77729,-6.388489 -6.73569,0 -14.79074,5.694088 -14.79074,12.082577" style="stroke-width:0.694401"/>
	<path class="Note" d="m 1099.3816,112.7694 c 0,4.26561 3.0752,9.02721 11.1104,9.02721 10.3168,0 21.1296,-8.43201 21.1296,-17.16161 0,-5.85281 -4.96,-9.126413 -11.1104,-9.126413 -9.6224,0 -21.1296,8.134413 -21.1296,17.260813" style="stroke-width:0.992001"/>
	<path class="Note" d="m 464.0616,162.3694 c 0,4.26561 3.0752,9.02721 11.11041,9.02721 10.31681,0 21.12962,-8.43201 21.12962,-17.16161 0,-5.85281 -4.96,-9.12641 -11.11041,-9.12641 -9.62241,0 -21.12962,8.13441 -21.12962,17.26081" style="stroke-width:0.992001"/>
	<path class="Note" d="m 1099.3816,174.7694 c 0,4.26561 3.0752,9.02721 11.1104,9.02721 10.3168,0 21.1296,-8.43201 21.1296,-17.16161 0,-5.85281 -4.96,-9.12641 -11.1104,-9.12641 -9.6224,0 -21.1296,8.13441 -21.1296,17.26081" style="stroke-width:0.992001"/>
	<path class="Note" d="m 1324.8016,185.91948 c 0,2.98593 2.1526,6.31905 7.7773,6.31905 7.2218,0 14.7907,-5.90241 14.7907,-12.01313 0,-4.09697 -3.472,-6.38849 -7.7773,-6.38849 -6.7356,0 -14.7907,5.69408 -14.7907,12.08257" style="stroke-width:0.694401"/>
	<path class="Note" d="m 325.9816,87.969404 c 0,4.265604 3.0752,9.027209 11.11041,9.027209 10.31681,0 21.12962,-8.432008 21.12962,-17.161617 0,-5.852806 -4.96,-9.126409 -11.11041,-9.126409 -9.62241,0 -21.12962,8.134408 -21.12962,17.260817" style="stroke-width:0.992001"/>
	<path class="Note" d="m 1030.3416,187.1694 c 0,4.26561 3.0752,9.02721 11.1104,9.02721 10.3168,0 21.1296,-8.43201 21.1296,-17.16161 0,-5.85281 -4.96,-9.12641 -11.1104,-9.12641 -9.6224,0 -21.1296,8.1344 -21.1296,17.26081" style="stroke-width:0.992001"/>
	<path class="Note" d="m 1030.3416,125.1694 c 0,4.26561 3.0752,9.02721 11.1104,9.02721 10.3168,0 21.1296,-8.43201 21.1296,-17.16161 0,-5.85281 -4.96,-9.12641 -11.1104,-9.12641 -9.6224,0 -21.1296,8.1344 -21.1296,17.26081" style="stroke-width:0.992001"/>
	<path class="Note" d="m 325.9816,149.9694 c 0,4.26561 3.0752,9.02721 11.11041,9.02721 10.31681,0 21.12962,-8.43201 21.12962,-17.16161 0,-5.85281 -4.96,-9.12641 -11.11041,-9.12641 -9.62241,0 -21.12962,8.13441 -21.12962,17.26081" style="stroke-width:0.992001"/>
	<path class="Note" d="m 740.2216,125.1694 c 0,4.26561 3.0752,9.02721 11.11041,9.02721 10.31681,0 21.12962,-8.43201 21.12962,-17.16161 0,-5.85281 -4.96,-9.12641 -11.11041,-9.12641 -9.62241,0 -21.12962,8.1344 -21.12962,17.26081" style="stroke-width:0.992001"/>
	<path class="Note" d="m 1030.3416,323.5694 c 0,4.26561 3.0752,9.02721 11.1104,9.02721 10.3168,0 21.1296,-8.43201 21.1296,-17.16161 0,-5.85281 -4.96,-9.12641 -11.1104,-9.12641 -9.6224,0 -21.1296,8.1344 -21.1296,17.26081" style="stroke-width:0.992001"/>
	<path class="Note" d="m 961.3016,410.3694 c 0,4.26561 3.0752,9.02721 11.11041,9.02721 10.31681,0 21.12962,-8.43201 21.12962,-17.16161 0,-5.85281 -4.96,-9.12641 -11.11041,-9.12641 -9.62241,0 -21.12962,8.1344 -21.12962,17.26081" style="stroke-width:0.992001"/>
	<path class="Note" d="m 1375.5316,323.5694 c 0,4.26561 3.0752,9.02721 11.1104,9.02721 10.3168,0 21.1296,-8.43201 21.1296,-17.16161 0,-5.85281 -4.96,-9.12641 -11.1104,-9.12641 -9.6224,0 -21.1296,8.1344 -21.1296,17.26081" style="stroke-width:0.992001"/>
	<path class="Note" d="m 1099.3816,410.3694 c 0,4.26561 3.0752,9.02721 11.1104,9.02721 10.3168,0 21.1296,-8.43201 21.1296,-17.16161 0,-5.85281 -4.96,-9.12641 -11.1104,-9.12641 -9.6224,0 -21.1296,8.1344 -21.1296,17.26081" style="stroke-width:0.992001"/>
	<path class="Note" d="m 1168.4216,323.5694 c 0,4.26561 3.0752,9.02721 11.1104,9.02721 10.3168,0 21.1296,-8.43201 21.1296,-17.16161 0,-5.85281 -4.96,-9.12641 -11.1104,-9.12641 -9.6224,0 -21.1296,8.1344 -21.1296,17.26081" style="stroke-width:0.992001"/>
	<path class="Note" d="m 809.2616,323.5694 c 0,4.26561 3.0752,9.02721 11.11041,9.02721 10.31681,0 21.12962,-8.43201 21.12962,-17.16161 0,-5.85281 -4.96,-9.12641 -11.11041,-9.12641 -9.62241,0 -21.12962,8.1344 -21.12962,17.26081" style="stroke-width:0.992001"/>
	<path class="Note" d="m 740.2216,410.3694 c 0,4.26561 3.0752,9.02721 11.11041,9.02721 10.31681,0 21.12962,-8.43201 21.12962,-17.16161 0,-5.85281 -4.96,-9.12641 -11.11041,-9.12641 -9.62241,0 -21.12962,8.1344 -21.12962,17.26081" style="stroke-width:0.992001"/>
	<path class="Note" d="m 671.1816,323.5694 c 0,4.26561 3.0752,9.02721 11.11041,9.02721 10.31681,0 21.12962,-8.43201 21.12962,-17.16161 0,-5.85281 -4.96,-9.12641 -11.11041,-9.12641 -9.62241,0 -21.12962,8.1344 -21.12962,17.26081" style="stroke-width:0.992001"/>
	<path class="Note" d="m 1237.4616,410.3694 c 0,4.26561 3.0752,9.02721 11.1104,9.02721 10.3168,0 21.1296,-8.43201 21.1296,-17.16161 0,-5.85281 -4.96,-9.12641 -11.1104,-9.12641 -9.6224,0 -21.1296,8.1344 -21.1296,17.26081" style="stroke-width:0.992001"/>
	<path class="Note" d="m 1306.4916,323.5694 c 0,4.26561 3.0752,9.02721 11.1104,9.02721 10.3168,0 21.1296,-8.43201 21.1296,-17.16161 0,-5.85281 -4.96,-9.12641 -11.1104,-9.12641 -9.6224,0 -21.1296,8.1344 -21.1296,17.26081" style="stroke-width:0.992001"/>
	<path class="Note" d="m 602.1416,410.3694 c 0,4.26561 3.0752,9.02721 11.11041,9.02721 10.31681,0 21.12962,-8.43201 21.12962,-17.16161 0,-5.85281 -4.96,-9.12641 -11.11041,-9.12641 -9.62241,0 -21.12962,8.1344 -21.12962,17.26081" style="stroke-width:0.992001"/>
	<path class="Note" d="m 533.1016,323.5694 c 0,4.26561 3.0752,9.02721 11.11041,9.02721 10.31681,0 21.12962,-8.43201 21.12962,-17.16161 0,-5.85281 -4.96,-9.12641 -11.11041,-9.12641 -9.62241,0 -21.12962,8.1344 -21.12962,17.26081" style="stroke-width:0.992001"/>
	<path class="Note" d="m 464.0616,410.3694 c 0,4.26561 3.0752,9.02721 11.11041,9.02721 10.31681,0 21.12962,-8.43201 21.12962,-17.16161 0,-5.85281 -4.96,-9.12641 -11.11041,-9.12641 -9.62241,0 -21.12962,8.1344 -21.12962,17.26081" style="stroke-width:0.992001"/>
	<path class="Note" d="m 395.0216,323.5694 c 0,4.26561 3.0752,9.02721 11.11041,9.02721 10.31681,0 21.12962,-8.43201 21.12962,-17.16161 0,-5.85281 -4.96,-9.12641 -11.11041,-9.12641 -9.62241,0 -21.12962,8.1344 -21.12962,17.26081" style="stroke-width:0.992001"/>
	<path class="Note" d="m 325.9816,410.3694 c 0,4.26561 3.0752,9.02721 11.11041,9.02721 10.31681,0 21.12962,-8.43201 21.12962,-17.16161 0,-5.85281 -4.96,-9.12641 -11.11041,-9.12641 -9.62241,0 -21.12962,8.1344 -21.12962,17.26081" style="stroke-width:0.992001"/>
	<path class="Note" d="m 1375.5316,410.3694 c 0,4.26561 3.0752,9.02721 11.1104,9.02721 10.3168,0 21.1296,-8.43201 21.1296,-17.16161 0,-5.85281 -4.96,-9.12641 -11.1104,-9.12641 -9.6224,0 -21.1296,8.1344 -21.1296,17.26081" style="stroke-width:0.992001"/>
	<path class="Clef" d="m 82.949212,196.69265 c 0,6.54721 4.960005,15.17762 18.352018,15.17762 4.66241,0 8.72961,-1.1904 12.30081,-3.37281 5.35681,-3.7696 6.74561,-10.31681 6.74561,-16.56641 0,-3.86881 -0.5952,-8.33281 -1.5872,-13.98722 -0.2976,-1.984 -0.8928,-4.96 -1.488,-8.82881 9.72161,-3.1744 16.96321,-13.29281 16.96321,-23.51042 0,-14.97922 -10.61441,-25.09763 -25.09762,-25.09763 -0.992,-5.952 -1.984,-11.80481 -2.7776,-17.36001 10.41601,-11.011214 17.65761,-23.411227 17.65761,-39.184043 0,-9.027209 -2.7776,-16.368016 -4.3648,-19.93922 -2.3808,-5.059205 -5.25761,-8.531208 -7.04321,-8.531208 -0.6944,0 -3.7696,1.190401 -7.04321,5.059205 -6.348801,7.539207 -8.134403,20.23682 -8.134403,28.569629 0,5.356805 0.496,10.21761 2.182402,21.328021 -0.0992,0.0992 -5.257605,5.356806 -7.340807,7.043207 C 83.246813,105.82536 70.7476,117.92777 70.7476,137.76779 c 0,18.55042 16.169616,33.13284 34.62084,33.13284 2.8768,0 5.5552,-0.29761 7.8368,-0.69441 1.88481,9.52321 3.07521,16.46722 3.07521,21.72483 0,10.31681 -5.35681,15.77281 -15.37602,15.77281 -2.380802,0 -4.464004,-0.496 -4.662404,-0.496 -0.0992,-0.0992 -0.297601,-0.1984 -0.297601,-0.2976 0,-0.1984 0.198401,-0.2976 0.496001,-0.2976 4.662404,-0.7936 9.324814,-4.7616 9.324814,-11.11041 0,-5.35681 -4.06721,-11.01121 -11.507216,-11.01121 -6.944007,0 -11.308812,5.6544 -11.308812,12.20161 M 103.68203,64.260518 c 0.8928,-3.968004 5.45601,-14.384015 10.61441,-14.384015 1.48801,0 3.86881,4.761605 3.86881,11.705612 0,10.31681 -7.63841,18.054418 -14.48322,24.800025 -0.5952,-3.968004 -1.0912,-7.836808 -1.0912,-12.003212 0,-3.670404 0.2976,-7.043207 1.0912,-10.11841 m 8.72961,101.977702 c -1.984,0.3968 -3.8688,0.5952 -5.7536,0.5952 -14.185618,0 -26.28803,-9.92001 -26.28803,-24.89922 0,-12.10242 8.531208,-22.91523 17.260817,-30.45443 1.686402,-1.48801 3.273603,-2.87681 4.761603,-4.36481 0.8928,5.35681 1.5872,10.01921 2.2816,14.08642 -9.027205,2.6784 -15.177611,12.20161 -15.177611,21.52642 0,6.944 5.456005,16.46721 13.392011,16.46721 0.7936,0 1.6864,-0.3968 1.6864,-1.2896 0,-0.8928 -0.992,-1.3888 -2.1824,-2.1824 -3.868802,-2.3808 -6.051204,-4.96001 -6.051204,-9.82081 0,-6.05121 4.563204,-10.91201 10.316814,-12.30081 l 5.7536,32.63683 m 14.08642,-18.35202 c 0,7.04321 -2.87681,14.28482 -9.92001,17.16162 -2.08321,-11.90401 -4.76161,-27.67683 -5.45601,-32.04163 8.92801,0 15.37602,6.0512 15.37602,14.88001" style="stroke-width:0.992001"/>
	<path class="Clef" d="m 95.944425,331.70377 c -7.539207,0 -13.590413,4.36481 -13.689613,4.36481 -5.852806,4.2656 -9.62241,10.81281 -9.62241,18.05442 0,7.2416 4.166404,12.59841 11.507212,12.59841 6.348806,0 11.308811,-4.2656 11.308811,-10.81281 0,-5.65441 -4.960005,-10.31681 -10.515211,-10.31681 -1.190401,0 -2.281602,0.1984 -3.174403,0.496 -0.992001,0.3968 -2.678403,1.3888 -3.472003,2.0832 0.6944,-4.3648 3.670403,-8.72961 7.539207,-10.81281 2.480003,-1.3888 5.654406,-1.984 9.126409,-1.984 10.118406,0 15.078416,8.13441 15.078416,24.80002 0,12.89602 -8.23361,31.44644 -17.955218,40.17604 -10.316811,9.42401 -20.038421,13.88802 -20.137621,13.88802 0,0 -1.190401,0.6944 -1.190401,1.8848 0,0.1984 0.0992,0.2976 0.0992,0.496 0.2976,0.992 1.190401,1.1904 1.884802,1.1904 l 0.2976,-0.0992 c 0.198401,0 11.507212,-4.6624 20.534421,-11.70561 13.888017,-10.01921 29.561627,-27.67683 29.561627,-45.92965 0,-17.26081 -9.32481,-28.37123 -27.180825,-28.37123 m 31.148835,12.59842 c 0,2.7776 2.1824,4.96 4.7616,4.96 2.5792,0 4.76161,-2.1824 4.76161,-4.96 0,-2.77761 -2.18241,-5.05921 -4.76161,-5.05921 -2.5792,0 -4.7616,2.2816 -4.7616,5.05921 m 0,24.50242 c 0,2.77761 2.1824,5.05921 4.7616,5.05921 2.5792,0 4.76161,-2.2816 4.76161,-5.05921 0,-2.7776 -2.18241,-5.0592 -4.76161,-5.0592 -2.5792,0 -4.7616,2.2816 -4.7616,5.0592" style="stroke-width:0.992001"/>
	<path class="KeySig" d="m 173.31861,105.62698 c -4.96,0 -7.83681,3.07521 -8.33281,3.67041 l 0.3968,-31.843234 c 0,-0.793601 -0.5952,-1.388801 -1.3888,-1.388801 h -1.1904 c -0.7936,0 -1.3888,0.5952 -1.3888,1.388801 l 0.496,59.619264 c 0,0.7936 0.5952,1.3888 1.3888,1.3888 0.1984,0 0.5952,-0.0992 0.7936,-0.1984 8.53121,-4.26561 17.45922,-12.40001 17.45922,-22.61763 0,-5.1584 -2.3808,-10.01921 -8.23361,-10.01921 m -8.63041,27.97443 0.2976,-19.34402 c 0.1984,-0.8928 1.68641,-3.7696 5.65441,-3.7696 3.5712,0 3.8688,3.3728 3.8688,5.456 0,8.82881 -3.2736,12.49922 -9.82081,17.65762" style="stroke-width:0.992001"/>
	<path class="KeySig" d="m 200.89361,68.426984 c -4.96,0 -7.83681,3.075204 -8.33281,3.670404 l 0.3968,-31.843232 c 0,-0.793601 -0.5952,-1.388801 -1.3888,-1.388801 h -1.1904 c -0.7936,0 -1.3888,0.5952 -1.3888,1.388801 l 0.496,59.61926 c 0,0.793604 0.5952,1.388804 1.3888,1.388804 0.1984,0 0.5952,-0.0992 0.7936,-0.1984 8.53121,-4.265607 17.45922,-12.400015 17.45922,-22.617625 0,-5.158406 -2.3808,-10.019211 -8.23361,-10.019211 m -8.63041,27.974429 0.2976,-19.34402 c 0.1984,-0.892801 1.68641,-3.769604 5.65441,-3.769604 3.5712,0 3.8688,3.372804 3.8688,5.456006 0,8.828809 -3.2736,12.499212 -9.82081,17.657618" style="stroke-width:0.992001"/>
	<path class="KeySig" d="m 173.31861,390.82698 c -4.96,0 -7.83681,3.07521 -8.33281,3.67041 l 0.3968,-31.84323 c 0,-0.7936 -0.5952,-1.38881 -1.3888,-1.38881 h -1.1904 c -0.7936,0 -1.3888,0.59521 -1.3888,1.38881 l 0.496,59.61926 c 0,0.7936 0.5952,1.3888 1.3888,1.3888 0.1984,0 0.5952,-0.0992 0.7936,-0.1984 8.53121,-4.26561 17.45922,-12.40002 17.45922,-22.61763 0,-5.1584 -2.3808,-10.01921 -8.23361,-10.01921 m -8.63041,27.97443 0.2976,-19.34402 c 0.1984,-0.8928 1.68641,-3.7696 5.65441,-3.7696 3.5712,0 3.8688,3.3728 3.8688,5.456 0,8.82881 -3.2736,12.49922 -9.82081,17.65762" style="stroke-width:0.992001"/>
	<path class="KeySig" d="m 200.89361,353.62698 c -4.96,0 -7.83681,3.07521 -8.33281,3.67041 l 0.3968,-31.84323 c 0,-0.7936 -0.5952,-1.38881 -1.3888,-1.38881 h -1.1904 c -0.7936,0 -1.3888,0.59521 -1.3888,1.38881 l 0.496,59.61926 c 0,0.7936 0.5952,1.3888 1.3888,1.3888 0.1984,0 0.5952,-0.0992 0.7936,-0.1984 8.53121,-4.26561 17.45922,-12.40002 17.45922,-22.61763 0,-5.1584 -2.3808,-10.01921 -8.23361,-10.01921 m -8.63041,27.97443 0.2976,-19.34402 c 0.1984,-0.8928 1.68641,-3.7696 5.65441,-3.7696 3.5712,0 3.8688,3.3728 3.8688,5.456 0,8.82881 -3.2736,12.49922 -9.82081,17.65762" style="stroke-width:0.992001"/>
	<path class="TimeSig" d="m 253.16522,108.80141 v 7.34081 h -8.23361 c -0.6944,0 -1.3888,0.5952 -1.3888,1.3888 v 1.8848 c 0,0.7936 0.6944,1.3888 1.3888,1.3888 h 30.05763 c 0.7936,0 1.3888,-0.5952 1.3888,-1.3888 v -1.8848 c 0,-0.7936 -0.5952,-1.3888 -1.3888,-1.3888 h -8.82881 v -7.34081 h 8.82881 c 0.7936,0 1.3888,-0.6944 1.3888,-1.488 v -1.8848 c 0,-0.6944 -0.5952,-1.3888 -1.3888,-1.3888 h -8.82881 V 88.266992 c 0,-0.595201 -0.2976,-1.091201 -0.7936,-1.289601 l -1.1904,-0.595201 c -0.1984,-0.0992 -0.496,-0.1984 -0.6944,-0.1984 -0.2976,0.0992 -0.6944,0.1984 -0.8928,0.3968 l -9.02721,8.233609 c -0.2976,0.2976 -0.3968,0.6944 -0.3968,1.091201 v 8.13441 h -11.40801 c 0,0 11.01121,-11.904014 22.71682,-27.57763 0.3968,-0.496 0.496,-0.992001 0.496,-1.388801 0,-0.496001 -0.1984,-0.892801 -0.2976,-0.992001 l -2.1824,-2.182402 c -0.1984,-0.198401 -0.5952,-0.396801 -0.992,-0.396801 -0.5952,0 -13.98721,0 -14.68162,0 -0.7936,0 -1.2896,0.595201 -1.3888,1.190401 0,0 -0.496,7.340808 -3.0752,15.376016 -2.5792,8.035208 -5.55521,12.995218 -8.13441,16.665618 0,0 -0.2976,0.496 -0.2976,1.0912 0,0.1984 0,0.3968 0.0992,0.5952 0.3968,0.6944 0.992,1.7856 0.992,1.7856 0,0 0.1984,0.5952 1.0912,0.5952 h 17.06242" style="stroke-width:0.992001"/>
	<path class="TimeSig" d="m 253.16522,158.40141 v 7.34081 h -8.23361 c -0.6944,0 -1.3888,0.5952 -1.3888,1.3888 v 1.8848 c 0,0.7936 0.6944,1.3888 1.3888,1.3888 h 30.05763 c 0.7936,0 1.3888,-0.5952 1.3888,-1.3888 v -1.8848 c 0,-0.7936 -0.5952,-1.3888 -1.3888,-1.3888 h -8.82881 v -7.34081 h 8.82881 c 0.7936,0 1.3888,-0.6944 1.3888,-1.488 v -1.8848 c 0,-0.6944 -0.5952,-1.3888 -1.3888,-1.3888 h -8.82881 v -15.77282 c 0,-0.5952 -0.2976,-1.0912 -0.7936,-1.2896 l -1.1904,-0.5952 c -0.1984,-0.0992 -0.496,-0.1984 -0.6944,-0.1984 -0.2976,0.0992 -0.6944,0.1984 -0.8928,0.3968 l -9.02721,8.23361 c -0.2976,0.2976 -0.3968,0.6944 -0.3968,1.0912 v 8.13441 h -11.40801 c 0,0 11.01121,-11.90401 22.71682,-27.57763 0.3968,-0.496 0.496,-0.992 0.496,-1.3888 0,-0.496 -0.1984,-0.8928 -0.2976,-0.992 l -2.1824,-2.18241 c -0.1984,-0.1984 -0.5952,-0.3968 -0.992,-0.3968 -0.5952,0 -13.98721,0 -14.68162,0 -0.7936,0 -1.2896,0.59521 -1.3888,1.19041 0,0 -0.496,7.3408 -3.0752,15.37601 -2.5792,8.03521 -5.55521,12.99521 -8.13441,16.66562 0,0 -0.2976,0.496 -0.2976,1.0912 0,0.1984 0,0.3968 0.0992,0.5952 0.3968,0.6944 0.992,1.7856 0.992,1.7856 0,0 0.1984,0.5952 1.0912,0.5952 h 17.06242" style="stroke-width:0.992001"/>
	<path class="TimeSig" d="m 253.16522,369.20141 v 7.34081 h -8.23361 c -0.6944,0 -1.3888,0.5952 -1.3888,1.3888 v 1.8848 c 0,0.7936 0.6944,1.3888 1.3888,1.3888 h 30.05763 c 0.7936,0 1.3888,-0.5952 1.3888,-1.3888 v -1.8848 c 0,-0.7936 -0.5952,-1.3888 -1.3888,-1.3888 h -8.82881 v -7.34081 h 8.82881 c 0.7936,0 1.3888,-0.6944 1.3888,-1.488 v -1.8848 c 0,-0.6944 -0.5952,-1.3888 -1.3888,-1.3888 h -8.82881 v -15.77282 c 0,-0.5952 -0.2976,-1.0912 -0.7936,-1.2896 l -1.1904,-0.5952 c -0.1984,-0.0992 -0.496,-0.1984 -0.6944,-0.1984 -0.2976,0.0992 -0.6944,0.1984 -0.8928,0.3968 l -9.02721,8.23361 c -0.2976,0.2976 -0.3968,0.6944 -0.3968,1.0912 v 8.13441 h -11.40801 c 0,0 11.01121,-11.90401 22.71682,-27.57763 0.3968,-0.496 0.496,-0.992 0.496,-1.3888 0,-0.496 -0.1984,-0.8928 -0.2976,-0.992 l -2.1824,-2.1824 c -0.1984,-0.1984 -0.5952,-0.3968 -0.992,-0.3968 -0.5952,0 -13.98721,0 -14.68162,0 -0.7936,0 -1.2896,0.5952 -1.3888,1.1904 0,0 -0.496,7.3408 -3.0752,15.37601 -2.5792,8.03521 -5.55521,12.99521 -8.13441,16.66562 0,0 -0.2976,0.496 -0.2976,1.0912 0,0.1984 0,0.3968 0.0992,0.5952 0.3968,0.6944 0.992,1.7856 0.992,1.7856 0,0 0.1984,0.5952 1.0912,0.5952 h 17.06242" style="stroke-width:0.992001"/>
	<path class="TimeSig" d="m 253.16522,418.80141 v 7.34081 h -8.23361 c -0.6944,0 -1.3888,0.5952 -1.3888,1.3888 v 1.8848 c 0,0.7936 0.6944,1.3888 1.3888,1.3888 h 30.05763 c 0.7936,0 1.3888,-0.5952 1.3888,-1.3888 v -1.8848 c 0,-0.7936 -0.5952,-1.3888 -1.3888,-1.3888 h -8.82881 v -7.34081 h 8.82881 c 0.7936,0 1.3888,-0.6944 1.3888,-1.488 v -1.8848 c 0,-0.6944 -0.5952,-1.3888 -1.3888,-1.3888 h -8.82881 v -15.77282 c 0,-0.5952 -0.2976,-1.0912 -0.7936,-1.2896 l -1.1904,-0.5952 c -0.1984,-0.0992 -0.496,-0.1984 -0.6944,-0.1984 -0.2976,0.0992 -0.6944,0.1984 -0.8928,0.3968 l -9.02721,8.23361 c -0.2976,0.2976 -0.3968,0.6944 -0.3968,1.0912 v 8.13441 h -11.40801 c 0,0 11.01121,-11.90401 22.71682,-27.57763 0.3968,-0.496 0.496,-0.992 0.496,-1.3888 0,-0.496 -0.1984,-0.8928 -0.2976,-0.992 l -2.1824,-2.1824 c -0.1984,-0.1984 -0.5952,-0.3968 -0.992,-0.3968 -0.5952,0 -13.98721,0 -14.68162,0 -0.7936,0 -1.2896,0.5952 -1.3888,1.1904 0,0 -0.496,7.3408 -3.0752,15.37601 -2.5792,8.03521 -5.55521,12.99521 -8.13441,16.66562 0,0 -0.2976,0.496 -0.2976,1.0912 0,0.1984 0,0.3968 0.0992,0.5952 0.3968,0.6944 0.992,1.7856 0.992,1.7856 0,0 0.1984,0.5952 1.0912,0.5952 h 17.06242" style="stroke-width:0.992001"/>
	<path class="Beam" d="m 991.0516,34.2 209.6,-6.2 v 12.405 l -209.6,6.2 V 34.2" fill-rule="evenodd"/>
	<path class="Beam" d="m 769.9716,46.603 h 71.52 v 12.4 h -71.52 v -12.4" fill-rule="evenodd"/>
	<path class="Beam" d="m 961.3016,462.003 h 209.6 v 12.4 h -209.6 v -12.4" fill-rule="evenodd"/>
	<path class="Beam" d="m 1237.4616,461.98 71.51,-6.2 v 12.446 l -71.51,6.2 V 461.98" fill-rule="evenodd"/>
	<path class="Beam" d="m 602.1416,462.003 h 209.6 v 12.4 h -209.6 v -12.4" fill-rule="evenodd"/>
	<path class="Beam" d="m 325.9816,462.003 h 209.6 v 12.4 h -209.6 v -12.4" fill-rule="evenodd"/>
	<path class="Hook" d="m 1345.6216,147.45968 c 0,0.20832 0.5555,0.48608 1.0416,0.6944 1.8054,0.62496 7.2218,4.09696 11.3882,10.27713 2.3609,3.54145 2.9165,6.04129 2.9165,8.40226 0,0.41664 0,0.76384 -0.07,1.18048 0,1.66656 -0.4861,5.20801 -1.5277,7.98561 -0.069,0.3472 -0.2777,0.76384 -0.2777,1.11104 0,0.27776 0.1389,0.55552 0.4861,0.76384 0.1388,0.0694 0.2777,0.0694 0.3472,0.0694 0.486,0 0.7638,-0.55552 1.0416,-0.97216 1.2499,-1.94432 3.0553,-5.69409 3.0553,-9.58273 0,-2.01377 -0.1389,-3.68033 -0.3472,-5.13857 0.7639,-2.56928 1.3194,-5.13857 1.3194,-8.54113 0,-3.61089 -0.9722,-6.87457 -3.3331,-9.99938 -3.2637,-4.30528 -6.8052,-7.84673 -9.4439,-11.73537 -2.6387,-3.81921 -4.583,-10.97154 -4.583,-10.97154 -0.1389,-0.48608 -0.2084,-0.83328 -0.9722,-0.83328 -0.8333,0 -1.0416,0.3472 -1.0416,0.83328 v 26.45668 m 14.513,6.38849 c -1.8749,-2.43041 -3.9581,-4.65249 -7.3607,-8.05505 -2.7081,-2.70817 -3.9581,-5.06913 -4.3747,-6.87457 -0.1389,-0.3472 -0.2083,-0.83329 -0.2778,-1.38881 3.5415,0.0694 8.0551,4.79137 10.5549,8.05506 2.7082,3.54144 3.3332,6.38848 3.3332,8.95777 0,0.6944 -0.069,1.3888 -0.1389,2.0832 -0.5555,-1.11104 -1.1805,-2.01376 -1.736,-2.7776" style="stroke-width:0.694401"/>
	<path class="Hook" d="m 931.3816,66.239678 c 0,0.20832 0.55552,0.486081 1.0416,0.694401 1.80544,0.624961 7.22177,4.096966 11.38818,10.277135 2.36096,3.541445 2.91648,6.041289 2.91648,8.402252 0,0.416641 0,0.763841 -0.0694,1.180482 0,1.666562 -0.48608,5.208007 -1.52768,7.985611 -0.0694,0.347201 -0.27776,0.763841 -0.27776,1.111042 0,0.27776 0.13888,0.555521 0.48608,0.763841 0.13888,0.06944 0.27776,0.06944 0.3472,0.06944 0.48608,0 0.76384,-0.555521 1.0416,-0.972161 1.24992,-1.944323 3.05537,-5.694089 3.05537,-9.582734 0,-2.013763 -0.13888,-3.680325 -0.3472,-5.138568 0.76384,-2.569283 1.31936,-5.138567 1.31936,-8.541132 0,-3.610885 -0.97216,-6.87457 -3.33313,-9.999374 -3.26368,-4.305286 -6.80513,-7.846732 -9.44385,-11.735377 C 935.33969,46.93533 933.39536,39.783 933.39536,39.783 c -0.13888,-0.486081 -0.20832,-0.833281 -0.97216,-0.833281 -0.83328,0 -1.0416,0.3472 -1.0416,0.833281 v 26.456678 m 14.51298,6.388489 c -1.87488,-2.430403 -3.95808,-4.652486 -7.36065,-8.055051 -2.70816,-2.708164 -3.95809,-5.069128 -4.37473,-6.87457 -0.13888,-0.347201 -0.20832,-0.833281 -0.27776,-1.388802 3.54145,0.06944 8.05506,4.791367 10.5549,8.055051 2.70816,3.541446 3.33312,6.38849 3.33312,8.957773 0,0.694401 -0.0694,1.388802 -0.13888,2.083203 -0.55552,-1.111041 -1.18048,-2.013763 -1.736,-2.777604" style="stroke-width:0.694401"/>
	<path class="Bracket" d="m 19.596,251.203 c 6.4728,-6.8324 19.0588,-20.8568 19.0588,-46.748 0,-32.7236 -14.0244,-65.8068 -14.0244,-86.304 0,-21.9356 12.586,-42.4328 13.3052,-43.152 0,-0.3596 0,-0.3596 0,-0.7192 0,-0.3596 0,-0.7192 -0.3596,-1.0788 -0.3596,0 -1.0788,0 -1.4384,0.7192 -0.3596,0.3596 -19.778,19.778 -19.778,49.2652 0,31.6448 12.586,53.94 12.586,95.294 0,7.9112 -3.2364,20.4972 -12.2264,31.6448 -0.3596,0 -0.3596,0.7192 -0.7192,1.0788 0,0.3596 0.3596,0.7192 0.7192,1.0788 8.99,11.1476 12.2264,23.7336 12.2264,31.6448 0,41.354 -12.586,63.6492 -12.586,95.294 0,29.1276 19.4184,48.9056 19.778,49.2652 0.3596,0.7192 1.0788,1.0788 1.4384,0.7192 0.3596,-0.3596 0.7192,-0.7192 0.3596,-1.0788 0,0 0,-0.3596 0,-0.7192 -0.7192,-0.7192 -13.3052,-21.2164 -13.3052,-43.152 0,-20.4972 14.0244,-53.5804 14.0244,-86.304 0,-26.2508 -12.586,-39.9156 -19.0588,-46.748" style="stroke-width:3.596"/>
</svg>
